# Blender 4.4.0
# www.blender.org
mtllib marker_blue.mtl
o Cylinder
v 0.000000 0.000000 -1.000000
v 0.000000 8.145620 -1.000000
v 0.866025 0.000000 -0.500000
v 0.866025 8.145620 -0.500000
v 0.866025 0.000000 0.500000
v 0.866025 8.145620 0.500000
v 0.000000 0.000000 1.000000
v 0.000000 8.145620 1.000000
v -0.866025 0.000000 0.500000
v -0.866025 8.145620 0.500000
v -0.866025 0.000000 -0.500000
v -0.866025 8.145620 -0.500000
v 0.000000 -1.351529 -0.480000
v 0.415692 -1.351529 -0.240000
v 0.415692 -1.351529 0.240000
v 0.000000 -1.351529 0.480000
v -0.415692 -1.351529 0.240000
v -0.415692 -1.351529 -0.240000
v 0.000000 -1.386135 -0.276062
v 0.239077 -1.386135 -0.138031
v 0.239077 -1.386135 0.138031
v 0.000000 -1.386135 0.276062
v -0.239077 -1.386135 0.138031
v -0.239077 -1.386135 -0.138031
v 0.239077 -2.015373 0.138031
v -0.000000 -2.015373 0.276062
v 0.239077 -2.015373 -0.138031
v -0.000000 -2.015373 -0.276062
v -0.239077 -2.015373 0.138031
v -0.239077 -2.015373 -0.138031
v 0.194959 -2.023768 -0.112560
v 0.194959 -2.023768 0.112560
v -0.194959 -2.023768 0.112560
v -0.194959 -2.023768 -0.112560
v 0.194959 -2.503768 -0.112560
v 0.194959 -2.503768 0.112560
v -0.194959 -2.403769 0.112560
v -0.194959 -2.403769 -0.112560
v 0.000000 9.923193 -0.800000
v 0.000000 9.923193 -0.622682
v 0.539258 9.923193 -0.311341
v 0.539258 9.923193 0.311341
v 0.000000 9.923193 0.622682
v -0.539258 9.923193 0.311341
v -0.539258 9.923193 -0.311341
v -0.692820 9.923193 -0.400000
v -0.692820 9.923193 0.400000
v 0.000000 9.923193 0.800000
v 0.692820 9.923193 0.400000
v 0.692820 9.923193 -0.400000
v 0.000000 9.223193 -0.560414
v 0.485333 9.223193 -0.280207
v 0.485333 9.223193 0.280207
v 0.000000 9.223193 0.560414
v -0.485333 9.223193 0.280207
v -0.485333 9.223193 -0.280207
vn 0.5000 -0.0000 -0.8660
vn 1.0000 -0.0000 -0.0000
vn 0.5000 -0.0000 0.8660
vn -0.5000 -0.0000 0.8660
vn -1.0000 -0.0000 -0.0000
vn -0.5000 -0.0000 -0.8660
vn -0.4744 -0.3161 0.8216
vn 0.9487 -0.3161 -0.0000
vn -0.9487 -0.3161 -0.0000
vn 0.4744 -0.3161 -0.8216
vn 0.4744 -0.3161 0.8216
vn -0.4744 -0.3161 -0.8216
vn 0.0961 -0.9813 -0.1665
vn -0.0961 -0.9813 0.1665
vn -0.0961 -0.9813 -0.1665
vn 0.1923 -0.9813 -0.0000
vn -0.1923 -0.9813 -0.0000
vn 0.0961 -0.9813 0.1665
vn -0.1869 -0.9824 -0.0000
vn -0.0000 -0.0000 -1.0000
vn 0.1869 -0.9824 -0.0000
vn -0.0000 -0.9497 -0.3130
vn -0.0000 1.0000 -0.0000
vn -0.2484 -0.9687 -0.0000
vn -0.0000 -0.0000 1.0000
vn -0.0000 -0.9497 0.3130
vn -0.4976 0.0970 -0.8619
vn 0.4976 0.0970 0.8619
vn 0.4976 0.0970 -0.8619
vn -0.9953 0.0970 -0.0000
vn 0.9953 0.0970 -0.0000
vn -0.4976 0.0970 0.8619
vn -0.4985 0.0768 0.8635
vn 0.4985 0.0768 0.8635
vn 0.4985 0.0768 -0.8635
vn -0.9970 0.0768 -0.0000
vn 0.9970 0.0768 -0.0000
vn -0.4985 0.0768 -0.8635
vn -0.0000 -1.0000 -0.0000
vt 0.052433 0.000000
vt 0.157299 0.851475
vt 0.052433 0.851475
vt 0.157299 0.000000
vt 0.209732 0.858722
vt 0.209732 0.007247
vt 0.262165 0.851475
vt 0.262165 0.000000
vt 0.367031 0.851475
vt 0.367031 0.000000
vt 0.419464 0.858722
vt 0.000000 0.007247
vt 0.000000 0.858722
vt 0.289430 0.996521
vt 0.130034 0.996521
vt 0.339766 0.996521
vt 0.079698 0.996521
vt 0.264263 1.000000
vt 0.054530 1.000000
vt 0.462889 0.689293
vt 0.433939 0.755068
vt 0.433939 0.689293
vt 0.463056 0.436700
vt 0.437985 0.400839
vt 0.463056 0.415314
vt 0.506648 0.361197
vt 0.463056 0.357415
vt 0.463056 0.336029
vt 0.488127 0.400839
vt 0.506648 0.411532
vt 0.419464 0.361197
vt 0.419464 0.411532
vt 0.488127 0.371890
vt 0.437985 0.371890
vt 0.444535 0.882744
vt 0.464980 0.865598
vt 0.469607 0.868270
vt 0.433939 0.757069
vt 0.462889 0.822845
vt 0.433939 0.822845
vt 0.419464 0.757069
vt 0.419464 0.691294
vt 0.419464 0.824845
vt 0.419464 0.759070
vt 0.477364 0.691294
vt 0.462889 0.755068
vt 0.477364 0.759070
vt 0.462889 0.757069
vt 0.706946 0.001094
vt 0.609467 0.096094
vt 0.609467 0.001094
vt 0.444535 0.824845
vt 0.424091 0.841991
vt 0.419464 0.839320
vt 0.444535 0.877402
vt 0.823085 0.581418
vt 0.882291 0.568637
vt 0.889670 0.581418
vt 0.665747 0.221728
vt 0.722027 0.121094
vt 0.722027 0.221728
vt 0.665747 0.121094
vt 0.609467 0.241094
vt 0.609467 0.121094
vt 0.804426 0.096094
vt 0.706946 0.121094
vt 0.778307 0.121094
vt 0.722027 0.216094
vt 0.444535 0.830187
vt 0.889670 0.466090
vt 0.830465 0.478871
vt 0.823085 0.466090
vt 0.748178 0.427766
vt 0.673270 0.576407
vt 0.664947 0.427766
vt 0.748178 0.274113
vt 0.673270 0.422754
vt 0.664947 0.274113
vt 0.639978 0.581418
vt 0.623332 0.434029
vt 0.789793 0.434029
vt 0.739855 0.576407
vt 0.789793 0.280376
vt 0.739855 0.422754
vt 0.639978 0.427765
vt 0.623332 0.280376
vt 0.789793 0.523754
vt 0.830465 0.568637
vt 0.908204 0.523754
vt 0.922962 0.523754
vt 0.882291 0.478871
vt 0.804551 0.523754
vt 0.867533 0.385301
vt 0.888263 0.323360
vt 0.893446 0.381401
vt 0.815706 0.385301
vt 0.864941 0.326870
vt 0.867533 0.323360
vt 0.888263 0.261418
vt 0.893446 0.319459
vt 0.789793 0.319459
vt 0.818298 0.264928
vt 0.815706 0.323360
vt 0.789793 0.381401
vt 0.818298 0.326870
vt 0.864941 0.264928
vt 0.859759 0.466090
vt 0.789793 0.425696
vt 0.859759 0.385301
vt 0.419464 0.007247
vt 0.155202 1.000000
vt 0.364934 1.000000
vt 0.477364 0.757069
vt 0.477364 0.824845
vt 0.419464 0.868270
vt 0.665747 0.241094
vt 0.804426 0.001094
vt 0.778307 0.216094
vt 0.469607 0.839320
vt 0.773147 0.581418
vt 0.773147 0.427765
vt 0.794976 0.261418
vt 0.794976 0.323360
vt 0.883080 0.425696
vt 0.813115 0.466090
vt 0.813115 0.385301
s 0
usemtl Material.001
f 2/1/1 3/2/1 1/3/1
f 4/4/2 5/5/2 3/2/2
f 6/6/3 7/7/3 5/5/3
f 8/8/4 9/9/4 7/7/4
f 10/10/5 11/11/5 9/9/5
f 12/12/6 1/3/6 11/13/6
f 9/9/7 16/14/7 7/7/7
f 5/5/8 14/15/8 3/2/8
f 11/11/9 17/16/9 9/9/9
f 3/2/10 13/17/10 1/3/10
f 7/7/11 15/18/11 5/5/11
f 1/3/12 18/19/12 11/13/12
f 23/20/4 26/21/4 22/22/4
f 13/23/13 20/24/13 19/25/13
f 17/26/14 22/27/14 16/28/14
f 13/23/15 24/29/15 18/30/15
f 15/31/16 20/24/16 14/32/16
f 18/30/17 23/33/17 17/26/17
f 16/28/18 21/34/18 15/31/18
f 30/35/19 33/36/19 29/37/19
f 19/38/1 27/39/1 28/40/1
f 22/22/3 25/41/3 21/42/3
f 19/38/6 30/43/6 24/44/6
f 24/45/5 29/46/5 23/20/5
f 21/47/2 27/39/2 20/48/2
f 31/49/20 38/50/20 34/51/20
f 25/52/21 31/53/21 27/54/21
f 27/54/22 34/55/22 30/35/22
f 47/56/23 45/57/23 46/58/23
f 36/59/24 38/60/24 35/61/24
f 32/62/2 35/63/2 31/64/2
f 32/49/25 37/65/25 36/66/25
f 34/67/5 37/68/5 33/60/5
f 29/37/26 32/69/26 25/52/26
f 50/70/23 42/71/23 49/72/23
f 12/73/27 39/74/27 2/75/27
f 6/76/28 48/77/28 8/78/28
f 2/75/29 50/79/29 4/80/29
f 10/81/30 46/82/30 12/73/30
f 4/83/31 49/84/31 6/76/31
f 8/78/32 47/85/32 10/86/32
f 48/87/23 44/88/23 47/56/23
f 46/58/23 40/89/23 39/90/23
f 39/90/23 41/91/23 50/70/23
f 49/72/23 43/92/23 48/87/23
f 40/93/33 52/94/33 41/95/33
f 45/96/34 51/97/34 40/93/34
f 43/98/35 55/99/35 44/100/35
f 41/101/36 53/102/36 42/103/36
f 44/104/37 56/105/37 45/96/37
f 42/103/38 54/106/38 43/98/38
f 51/107/23 55/108/23 53/109/23
f 2/1/1 4/4/1 3/2/1
f 4/4/2 6/6/2 5/5/2
f 6/6/3 8/8/3 7/7/3
f 8/8/4 10/10/4 9/9/4
f 10/10/5 12/110/5 11/11/5
f 12/12/6 2/1/6 1/3/6
f 9/9/7 17/16/7 16/14/7
f 5/5/8 15/111/8 14/15/8
f 11/11/9 18/112/9 17/16/9
f 3/2/10 14/15/10 13/17/10
f 7/7/11 16/14/11 15/18/11
f 1/3/12 13/17/12 18/19/12
f 23/20/4 29/46/4 26/21/4
f 13/23/13 14/32/13 20/24/13
f 17/26/14 23/33/14 22/27/14
f 13/23/15 19/25/15 24/29/15
f 15/31/16 21/34/16 20/24/16
f 18/30/17 24/29/17 23/33/17
f 16/28/18 22/27/18 21/34/18
f 30/35/19 34/55/19 33/36/19
f 19/38/1 20/48/1 27/39/1
f 22/22/3 26/21/3 25/41/3
f 19/38/6 28/40/6 30/43/6
f 24/45/5 30/113/5 29/46/5
f 21/47/2 25/114/2 27/39/2
f 31/49/20 35/66/20 38/50/20
f 25/52/21 32/69/21 31/53/21
f 30/35/39 28/115/39 27/54/39
f 27/54/22 31/53/22 34/55/22
f 47/56/23 44/88/23 45/57/23
f 36/59/24 37/62/24 38/60/24
f 32/62/2 36/116/2 35/63/2
f 32/49/25 33/117/25 37/65/25
f 34/67/5 38/118/5 37/68/5
f 25/52/39 26/119/39 29/37/39
f 29/37/26 33/36/26 32/69/26
f 50/70/23 41/91/23 42/71/23
f 12/73/27 46/82/27 39/74/27
f 6/76/28 49/84/28 48/77/28
f 2/75/29 39/74/29 50/79/29
f 10/81/30 47/120/30 46/82/30
f 4/83/31 50/121/31 49/84/31
f 8/78/32 48/77/32 47/85/32
f 48/87/23 43/92/23 44/88/23
f 46/58/23 45/57/23 40/89/23
f 39/90/23 40/89/23 41/91/23
f 49/72/23 42/71/23 43/92/23
f 40/93/33 51/97/33 52/94/33
f 45/96/34 56/105/34 51/97/34
f 43/98/35 54/106/35 55/99/35
f 41/101/36 52/122/36 53/102/36
f 44/104/37 55/123/37 56/105/37
f 42/103/38 53/102/38 54/106/38
f 53/109/23 52/124/23 51/107/23
f 51/107/23 56/125/23 55/108/23
f 55/108/23 54/126/23 53/109/23
